<svg width="25" height="26" viewBox="0 0 25 26" fill="none" xmlns="http://www.w3.org/2000/svg">
<g clip-path="url(#clip0_932_304)">
<path d="M25 12.5808C25 5.67729 19.4035 0.0808105 12.5 0.0808105C5.59648 0.0808105 0 5.6772 0 12.5808C0 18.8199 4.57109 23.9913 10.5469 24.929V16.1941H7.37305V12.5808H10.5469V9.8269C10.5469 6.69409 12.4131 4.96362 15.2683 4.96362C16.6359 4.96362 18.0664 5.20776 18.0664 5.20776V8.28394H16.4902C14.9373 8.28394 14.4531 9.24751 14.4531 10.2361V12.5808H17.9199L17.3657 16.1941H14.4531V24.929C20.4289 23.9913 25 18.82 25 12.5808Z" fill="#1877F2"/>
<path d="M17.3657 16.1941L17.9199 12.5808H14.4531V10.2361C14.4531 9.24741 14.9374 8.28394 16.4902 8.28394H18.0664V5.20776C18.0664 5.20776 16.6359 4.96362 15.2683 4.96362C12.4131 4.96362 10.5469 6.69409 10.5469 9.8269V12.5808H7.37305V16.1941H10.5469V24.929C11.193 25.0302 11.846 25.081 12.5 25.0808C13.154 25.081 13.807 25.0302 14.4531 24.929V16.1941H17.3657Z" fill="white"/>
</g>
<defs>
<clipPath id="clip0_932_304">
<rect width="25" height="25" fill="white" transform="translate(0 0.0808105)"/>
</clipPath>
</defs>
</svg>
