<svg width="25" height="26" viewBox="0 0 25 26" fill="none" xmlns="http://www.w3.org/2000/svg">
<g clip-path="url(#clip0_932_299)">
<path d="M19.1406 0.0808105H5.85938C2.62333 0.0808105 0 2.70414 0 5.94019V19.2214C0 22.4575 2.62333 25.0808 5.85938 25.0808H19.1406C22.3767 25.0808 25 22.4575 25 19.2214V5.94019C25 2.70414 22.3767 0.0808105 19.1406 0.0808105Z" fill="url(#paint0_radial_932_299)"/>
<path d="M19.1406 0.0808105H5.85938C2.62333 0.0808105 0 2.70414 0 5.94019V19.2214C0 22.4575 2.62333 25.0808 5.85938 25.0808H19.1406C22.3767 25.0808 25 22.4575 25 19.2214V5.94019C25 2.70414 22.3767 0.0808105 19.1406 0.0808105Z" fill="url(#paint1_radial_932_299)"/>
<path d="M12.5009 2.81519C9.84873 2.81519 9.51582 2.82681 8.47422 2.87417C7.43457 2.92183 6.7249 3.08638 6.104 3.32788C5.46162 3.57729 4.9168 3.91099 4.37402 4.45395C3.83076 4.99683 3.49707 5.54165 3.24688 6.18374C3.00469 6.80483 2.83994 7.51479 2.79316 8.55396C2.74658 9.59565 2.73438 9.92866 2.73438 12.5809C2.73438 15.2332 2.74609 15.565 2.79336 16.6066C2.84121 17.6462 3.00576 18.3559 3.24707 18.9768C3.49668 19.6192 3.83037 20.164 4.37334 20.7068C4.91602 21.25 5.46084 21.5845 6.10273 21.8339C6.72412 22.0754 7.43389 22.24 8.47334 22.2876C9.51504 22.335 9.84766 22.3466 12.4997 22.3466C15.1521 22.3466 15.484 22.335 16.5256 22.2876C17.5652 22.24 18.2757 22.0754 18.8971 21.8339C19.5392 21.5845 20.0832 21.25 20.6258 20.7068C21.169 20.164 21.5026 19.6192 21.7529 18.9771C21.993 18.3559 22.1578 17.646 22.2066 16.6068C22.2534 15.5652 22.2656 15.2332 22.2656 12.5809C22.2656 9.92866 22.2534 9.59585 22.2066 8.55415C22.1578 7.5145 21.993 6.80493 21.7529 6.18403C21.5026 5.54165 21.169 4.99683 20.6258 4.45395C20.0826 3.91079 19.5394 3.5771 18.8965 3.32798C18.2739 3.08638 17.5639 2.92173 16.5242 2.87417C15.4825 2.82681 15.1509 2.81519 12.4979 2.81519H12.5009ZM11.6248 4.57505C11.8849 4.57466 12.175 4.57505 12.5009 4.57505C15.1084 4.57505 15.4174 4.58442 16.4471 4.6312C17.3992 4.67476 17.916 4.83384 18.2603 4.96753C18.716 5.14448 19.0409 5.3561 19.3825 5.698C19.7243 6.03979 19.9358 6.36528 20.1133 6.82104C20.247 7.16479 20.4062 7.68159 20.4496 8.63374C20.4964 9.66323 20.5065 9.97241 20.5065 12.5787C20.5065 15.1849 20.4964 15.4942 20.4496 16.5236C20.4061 17.4757 20.247 17.9925 20.1133 18.3364C19.9363 18.7921 19.7243 19.1167 19.3825 19.4583C19.0407 19.8 18.7162 20.0116 18.2603 20.1886C17.9164 20.3229 17.3992 20.4816 16.4471 20.5251C15.4176 20.5719 15.1084 20.5821 12.5009 20.5821C9.89326 20.5821 9.58418 20.5719 8.55478 20.5251C7.60264 20.4812 7.08584 20.3221 6.74131 20.1884C6.28564 20.0114 5.96006 19.7999 5.61826 19.4581C5.27646 19.1163 5.06494 18.7916 4.8875 18.3356C4.75381 17.9917 4.59453 17.475 4.55117 16.5228C4.50439 15.4933 4.49502 15.1841 4.49502 12.5762C4.49502 9.96841 4.50439 9.66079 4.55117 8.6313C4.59473 7.67915 4.75381 7.16235 4.8875 6.81812C5.06455 6.36235 5.27646 6.03687 5.61836 5.69507C5.96016 5.35327 6.28564 5.14165 6.74141 4.96431C7.08564 4.83003 7.60264 4.67134 8.55478 4.62759C9.45566 4.58687 9.80479 4.57466 11.6248 4.57261V4.57505ZM17.7138 6.19653C17.0668 6.19653 16.5419 6.72095 16.5419 7.36802C16.5419 8.01499 17.0668 8.53989 17.7138 8.53989C18.3607 8.53989 18.8856 8.01499 18.8856 7.36802C18.8856 6.72105 18.3607 6.19614 17.7138 6.19614V6.19653ZM12.5009 7.56577C9.73135 7.56577 7.48584 9.81128 7.48584 12.5809C7.48584 15.3505 9.73135 17.595 12.5009 17.595C15.2705 17.595 17.5152 15.3505 17.5152 12.5809C17.5152 9.81138 15.2703 7.56577 12.5007 7.56577H12.5009ZM12.5009 9.32563C14.2986 9.32563 15.7562 10.783 15.7562 12.5809C15.7562 14.3787 14.2986 15.8362 12.5009 15.8362C10.703 15.8362 9.2457 14.3787 9.2457 12.5809C9.2457 10.783 10.703 9.32563 12.5009 9.32563Z" fill="white"/>
</g>
<defs>
<radialGradient id="paint0_radial_932_299" cx="0" cy="0" r="1" gradientUnits="userSpaceOnUse" gradientTransform="translate(6.64062 27.0063) rotate(-90) scale(24.7769 23.0444)">
<stop stop-color="#FFDD55"/>
<stop offset="0.1" stop-color="#FFDD55"/>
<stop offset="0.5" stop-color="#FF543E"/>
<stop offset="1" stop-color="#C837AB"/>
</radialGradient>
<radialGradient id="paint1_radial_932_299" cx="0" cy="0" r="1" gradientUnits="userSpaceOnUse" gradientTransform="translate(-4.1876 1.88169) rotate(78.681) scale(11.0754 45.6531)">
<stop stop-color="#3771C8"/>
<stop offset="0.128" stop-color="#3771C8"/>
<stop offset="1" stop-color="#6600FF" stop-opacity="0"/>
</radialGradient>
<clipPath id="clip0_932_299">
<rect width="25" height="25" fill="white" transform="translate(0 0.0808105)"/>
</clipPath>
</defs>
</svg>
