<svg width="22" height="21" viewBox="0 0 22 21" fill="none" xmlns="http://www.w3.org/2000/svg">
<path d="M17.7791 0L12.8903 5V16L17.7791 11.5V0ZM19.7345 4V17.5C18.659 17.15 17.4857 17 16.3124 17C14.6503 17 12.2548 17.65 10.9349 18.5V5C9.51713 3.9 7.46387 3.5 5.55727 3.5C3.65067 3.5 1.59741 3.9 0.179688 5V19.65C0.179688 19.9 0.424123 20.15 0.668559 20.15C0.766333 20.15 0.81522 20.1 0.912994 20.1C2.23295 19.45 4.13954 19 5.55727 19C7.46387 19 9.51713 19.4 10.9349 20.5C12.2548 19.65 14.6503 19 16.3124 19C17.9257 19 19.5879 19.3 20.9567 20.05C21.0545 20.1 21.1034 20.1 21.2011 20.1C21.4456 20.1 21.69 19.85 21.69 19.6V5C21.1034 4.55 20.4678 4.25 19.7345 4ZM8.97937 17.41C7.75719 17.09 6.53501 17 5.55727 17C4.52086 17 3.28891 17.19 2.13517 17.5V6.13C3.02492 5.73 4.22754 5.5 5.55727 5.5C6.887 5.5 8.08962 5.73 8.97937 6.13V17.41Z" fill="#3E3E3E"/>
</svg>
