<svg width="24" height="25" viewBox="0 0 24 25" fill="none" xmlns="http://www.w3.org/2000/svg">
<path d="M21.9999 17.0009V20.0009C22.0011 20.2794 21.944 20.5551 21.8324 20.8103C21.7209 21.0654 21.5572 21.2945 21.352 21.4828C21.1468 21.671 20.9045 21.8144 20.6407 21.9036C20.3769 21.9928 20.0973 22.026 19.8199 22.0009C16.7428 21.6665 13.7869 20.6151 11.1899 18.9309C8.77376 17.3956 6.72527 15.3471 5.18993 12.9309C3.49991 10.3221 2.44818 7.3519 2.11993 4.26091C2.09494 3.98437 2.12781 3.70567 2.21643 3.44253C2.30506 3.1794 2.4475 2.9376 2.6347 2.73253C2.82189 2.52746 3.04974 2.36362 3.30372 2.25143C3.55771 2.13924 3.83227 2.08117 4.10993 2.08091H7.10993C7.59524 2.07613 8.06572 2.24799 8.43369 2.56444C8.80166 2.88089 9.04201 3.32035 9.10993 3.80091C9.23656 4.76097 9.47138 5.70363 9.80993 6.61091C9.94448 6.96883 9.9736 7.35782 9.89384 7.73179C9.81408 8.10575 9.6288 8.44902 9.35993 8.72091L8.08993 9.99091C9.51349 12.4945 11.5864 14.5674 14.0899 15.9909L15.3599 14.7209C15.6318 14.452 15.9751 14.2668 16.3491 14.187C16.723 14.1072 17.112 14.1364 17.4699 14.2709C18.3772 14.6095 19.3199 14.8443 20.2799 14.9709C20.7657 15.0394 21.2093 15.2841 21.5265 15.6584C21.8436 16.0327 22.0121 16.5105 21.9999 17.0009Z" stroke="white" stroke-width="2" stroke-linecap="round" stroke-linejoin="round"/>
</svg>
