<svg width="25" height="26" viewBox="0 0 25 26" fill="none" xmlns="http://www.w3.org/2000/svg">
<g clip-path="url(#clip0_932_307)">
<path d="M12.5 0.0808105C9.18555 0.0808105 6.00391 1.39858 3.66211 3.74194C1.3179 6.08623 0.000649355 9.26554 0 12.5808C0 15.8947 1.31836 19.0763 3.66211 21.4197C6.00391 23.763 9.18555 25.0808 12.5 25.0808C15.8145 25.0808 18.9961 23.763 21.3379 21.4197C23.6816 19.0763 25 15.8947 25 12.5808C25 9.26694 23.6816 6.0853 21.3379 3.74194C18.9961 1.39858 15.8145 0.0808105 12.5 0.0808105Z" fill="url(#paint0_linear_932_307)"/>
<path d="M5.65813 12.4489C9.30266 10.8614 11.7323 9.81467 12.9472 9.30901C16.4198 7.86506 17.1406 7.61428 17.6113 7.60579C17.7148 7.60413 17.9452 7.62971 18.0956 7.75129C18.2206 7.85383 18.2558 7.99251 18.2734 8.08987C18.289 8.18713 18.3105 8.40881 18.2929 8.58186C18.1054 10.5584 17.2909 15.3549 16.8769 17.5688C16.7031 18.5055 16.3573 18.8196 16.0234 18.8502C15.2968 18.917 14.746 18.3705 14.0429 17.9098C12.9433 17.1885 12.3222 16.7397 11.2538 16.036C10.0195 15.2227 10.8202 14.7756 11.5234 14.0451C11.707 13.8539 14.9062 10.9448 14.9667 10.6809C14.9745 10.6479 14.9823 10.5248 14.9081 10.46C14.8359 10.3949 14.7284 10.4172 14.6503 10.4348C14.539 10.4598 12.7831 11.6215 9.37688 13.9198C8.87883 14.2623 8.42766 14.4293 8.02141 14.4205C7.5761 14.411 6.71672 14.1682 6.07805 13.9608C5.2968 13.7063 4.67375 13.5717 4.72844 13.1395C4.75579 12.9145 5.06633 12.6842 5.65813 12.4489Z" fill="white"/>
</g>
<defs>
<linearGradient id="paint0_linear_932_307" x1="1250" y1="0.0808105" x2="1250" y2="2500.08" gradientUnits="userSpaceOnUse">
<stop stop-color="#2AABEE"/>
<stop offset="1" stop-color="#229ED9"/>
</linearGradient>
<clipPath id="clip0_932_307">
<rect width="25" height="25" fill="white" transform="translate(0 0.0808105)"/>
</clipPath>
</defs>
</svg>
